<svg width="972" height="502" viewBox="0 0 972 502" fill="none" xmlns="http://www.w3.org/2000/svg">
<g clip-path="url(#clip0)">
<g clip-path="url(#clip1)">
<path d="M410.813 483.111C415.481 473.027 420.146 462.794 422.172 451.869C424.198 440.943 423.348 429.086 417.545 419.609C411.743 410.133 400.317 403.707 389.414 405.849C380.459 407.609 373.268 414.662 369.057 422.759C364.847 430.856 363.158 439.989 361.52 448.968C360.991 438.768 360.43 428.403 357.042 418.768C353.654 409.132 346.982 400.153 337.473 396.425C327.964 392.696 315.594 395.628 310.582 404.528C303.521 417.066 312.884 434.653 304.765 446.534C303.372 434.617 290.91 425.201 279.066 427.118C267.222 429.034 258.365 441.899 260.801 453.647C262.251 460.638 267.021 466.584 272.723 470.879C278.425 475.175 285.057 480.154 291.618 482.969L410.813 483.111Z" fill="#38BF3D"/>
<path d="M267.02 435.537C276.428 438.826 285.923 442.152 294.512 447.293C302.21 451.901 309.065 458.105 313.394 466.05C315.766 470.312 317.175 475.043 317.52 479.908C317.583 480.926 319.175 480.933 319.112 479.908C318.555 470.847 314.14 462.556 308.025 455.998C301.321 448.808 292.633 443.897 283.664 440.087C278.346 437.828 272.895 435.908 267.443 434.003C266.474 433.664 266.058 435.201 267.02 435.537H267.02Z" fill="white"/>
<path d="M321.287 398.004C327.068 407.634 331.696 417.91 335.079 428.62C338.467 439.326 340.602 450.39 341.44 461.588C341.903 467.857 341.954 474.15 341.591 480.425C341.532 481.449 343.124 481.445 343.183 480.425C343.825 469.111 343.14 457.76 341.142 446.605C339.148 435.451 335.87 424.565 331.373 414.165C328.85 408.323 325.939 402.656 322.662 397.201C322.552 397.027 322.378 396.902 322.177 396.853C321.977 396.804 321.765 396.835 321.586 396.939C321.408 397.043 321.277 397.212 321.222 397.411C321.166 397.61 321.189 397.823 321.287 398.004V398.004Z" fill="white"/>
<path d="M399.188 407.147C391.012 425.517 385.258 444.872 382.072 464.725C381.177 470.302 380.484 475.906 379.994 481.537C379.905 482.558 381.497 482.552 381.585 481.537C383.318 461.728 387.6 442.226 394.323 423.512C396.212 418.251 398.292 413.063 400.562 407.95C400.974 407.022 399.603 406.212 399.188 407.147V407.147Z" fill="white"/>
<path d="M681.473 504.791L681.346 494.91L634.761 495.512L634.889 505.394L681.473 504.791Z" fill="#E6E6E6"/>
<path d="M698.027 506.996L691.374 506.976L687.262 499.639L691.707 492.327L697.888 492.345C696.34 490.376 694.214 488.94 691.809 488.24C689.404 487.54 686.841 487.61 684.477 488.44C682.114 489.27 680.07 490.819 678.632 492.87C677.193 494.92 676.432 497.369 676.456 499.874C676.48 502.379 677.287 504.813 678.764 506.836C680.241 508.859 682.314 510.369 684.693 511.154C687.071 511.94 689.636 511.961 692.027 511.215C694.418 510.469 696.516 508.994 698.027 506.996V506.996Z" fill="#E6E6E6"/>
<path d="M618.208 506.996L624.861 506.976L628.973 499.639L624.528 492.327L618.347 492.345C619.895 490.376 622.021 488.94 624.426 488.24C626.831 487.54 629.394 487.61 631.757 488.44C634.121 489.27 636.165 490.819 637.603 492.87C639.042 494.92 639.802 497.37 639.779 499.874C639.755 502.379 638.948 504.813 637.471 506.836C635.994 508.859 633.921 510.369 631.542 511.154C629.164 511.94 626.599 511.961 624.208 511.215C621.817 510.469 619.719 508.994 618.208 506.996V506.996Z" fill="#E6E6E6"/>
<path d="M888 483.969H200C199.735 483.969 199.48 483.864 199.293 483.676C199.105 483.489 199 483.234 199 482.969C199 482.704 199.105 482.45 199.293 482.262C199.48 482.075 199.735 481.969 200 481.969H888C888.265 481.969 888.52 482.075 888.707 482.262C888.895 482.45 889 482.704 889 482.969C889 483.234 888.895 483.489 888.707 483.676C888.52 483.864 888.265 483.969 888 483.969Z" fill="#3F3D56"/>
<path d="M739.486 293.969C757.712 293.969 772.486 279.195 772.486 260.969C772.486 242.744 757.712 227.969 739.486 227.969C721.261 227.969 706.486 242.744 706.486 260.969C706.486 279.195 721.261 293.969 739.486 293.969Z" fill="#2F2E41"/>
<path d="M752.859 446.226L755.401 458.219L802.871 454.124L799.12 436.423L752.859 446.226Z" fill="#FFB8B8"/>
<path d="M749.166 483.71L741.178 446.016L755.741 442.93L760.643 466.06C761.461 469.923 760.712 473.952 758.56 477.262C756.407 480.572 753.028 482.891 749.166 483.71L749.166 483.71Z" fill="#2F2E41"/>
<path d="M723.12 445.586L717.777 456.621L672.673 441.264L680.559 424.979L723.12 445.586Z" fill="#FFB8B8"/>
<path d="M710.808 462.976L721.112 441.695L734.511 448.183L717.72 482.862C715.96 482.01 714.386 480.82 713.086 479.36C711.786 477.899 710.787 476.197 710.145 474.35C709.504 472.504 709.232 470.549 709.346 468.597C709.459 466.645 709.956 464.735 710.808 462.976V462.976Z" fill="#2F2E41"/>
<path d="M634.259 423.793C635.803 424.081 637.391 424.026 638.912 423.633C640.433 423.241 641.849 422.519 643.06 421.52C644.272 420.521 645.25 419.268 645.925 417.85C646.6 416.432 646.956 414.884 646.968 413.313L721.342 344.742L702.872 330.436L635.534 402.38C632.895 402.535 630.404 403.653 628.533 405.522C626.663 407.391 625.543 409.881 625.386 412.52C625.229 415.16 626.045 417.765 627.68 419.843C629.316 421.92 631.657 423.326 634.259 423.793H634.259Z" fill="#FFB8B8"/>
<path d="M735.344 295.459C748.909 295.459 759.906 284.463 759.906 270.898C759.906 257.334 748.909 246.337 735.344 246.337C721.78 246.337 710.783 257.334 710.783 270.898C710.783 284.463 721.78 295.459 735.344 295.459Z" fill="#FFB8B8"/>
<path d="M757.386 415.273C740.158 415.273 719.408 411.644 706.608 396.796L706.319 396.461L706.616 396.133C706.713 396.026 716.13 385.265 706.727 366.072L693.799 370.05L680.929 353.061L688.058 331.672L717.236 308.168C721.416 304.819 726.506 302.802 731.846 302.379C741.51 301.444 750.925 298.763 759.631 294.466C763.615 292.53 768.003 291.571 772.431 291.667L773.005 291.684C774.351 291.721 775.676 292.033 776.899 292.598C778.122 293.163 779.217 293.971 780.119 294.972C781.02 295.973 781.709 297.147 782.143 298.422C782.577 299.698 782.748 301.048 782.645 302.391C780.667 328.021 777.173 389.935 787.437 411.252L787.702 411.803L787.109 411.954C777.354 414.148 767.386 415.262 757.386 415.273V415.273Z" fill="#8108BA"/>
<path d="M709.986 396.469C709.986 396.469 644.986 390.469 637.986 409.469C630.986 428.469 638.986 437.469 650.986 441.469C662.986 445.469 709.986 459.5 709.986 459.5L722 441.469L738.986 436.469C738.986 436.469 749.025 435.999 759.5 459.5C761.747 464.586 793.177 491.411 797.716 494.622C802.255 497.834 807.58 499.755 813.123 500.182C821.521 500.766 828.986 497.594 828.986 484.469C828.986 454.469 786.986 411.469 786.986 411.469L709.986 396.469Z" fill="#2F2E41"/>
<path d="M660.486 425.969C660.486 425.969 677.486 420.969 704.486 433.969Z" fill="#2F2E41"/>
<path d="M710.843 255.235C720.435 261.09 731.248 264.653 742.442 265.647L739.111 261.656C741.536 262.553 744.088 263.059 746.672 263.157C747.966 263.195 749.25 262.929 750.423 262.38C751.595 261.831 752.622 261.016 753.422 259.998C754.075 258.942 754.463 257.743 754.553 256.504C754.643 255.265 754.432 254.023 753.937 252.883C752.922 250.61 751.342 248.635 749.348 247.145C745.813 244.348 741.641 242.47 737.204 241.677C732.767 240.884 728.202 241.201 723.917 242.6C720.978 243.478 718.346 245.167 716.322 247.472C715.327 248.633 714.636 250.023 714.311 251.517C713.986 253.012 714.037 254.563 714.459 256.033" fill="#2F2E41"/>
<path d="M739.309 235.604C743.673 225.471 750.206 216.418 758.446 209.082C763.738 204.38 769.918 200.339 776.892 199.12C783.866 197.9 791.725 199.989 796.003 205.631C799.501 210.244 800.155 216.423 799.77 222.2C799.384 227.976 798.093 233.696 798.217 239.484C798.343 245.39 799.942 251.17 802.869 256.301C805.796 261.432 809.958 265.75 814.977 268.864C819.996 271.979 825.714 273.79 831.61 274.134C837.507 274.478 843.397 273.344 848.744 270.835C842.722 274.164 838.03 279.433 832.439 283.443C826.848 287.453 819.476 290.203 813.127 287.553C806.409 284.749 803.327 277.134 800.921 270.263L790.189 239.624C788.365 234.415 786.45 229.052 782.727 224.978C779.004 220.905 772.962 218.422 767.838 220.47C763.954 222.022 761.425 225.727 759.207 229.274C756.99 232.82 754.65 236.594 750.904 238.453C747.157 240.313 741.605 239.168 740.381 235.168" fill="#2F2E41"/>
<path d="M738.626 384.192L731.729 391.27L765.095 423.784L771.992 416.706L738.626 384.192Z" fill="#9F9A9A"/>
<path d="M765.51 417.289C764.146 418.689 763.228 420.462 762.871 422.383C762.515 424.305 762.736 426.29 763.507 428.086C764.279 429.881 765.565 431.408 767.204 432.473C768.843 433.538 770.761 434.093 772.716 434.067C774.67 434.042 776.573 433.438 778.184 432.331C779.795 431.224 781.041 429.665 781.766 427.849C782.491 426.034 782.661 424.045 782.254 422.133C781.848 420.221 780.884 418.472 779.485 417.108C777.607 415.279 775.081 414.27 772.46 414.304C769.839 414.338 767.339 415.412 765.51 417.289V417.289ZM775.621 427.142C775.036 427.742 774.287 428.155 773.468 428.329C772.648 428.503 771.796 428.43 771.018 428.119C770.24 427.809 769.571 427.275 769.097 426.584C768.623 425.894 768.364 425.078 768.353 424.241C768.342 423.403 768.58 422.581 769.036 421.879C769.492 421.176 770.147 420.625 770.916 420.294C771.686 419.964 772.537 419.869 773.36 420.022C774.184 420.174 774.944 420.568 775.544 421.153C776.348 421.937 776.808 423.008 776.823 424.131C776.837 425.254 776.405 426.337 775.621 427.142Z" fill="#9F9A9A"/>
<path d="M728.48 370.928L733.17 375.646L730.89 383.742L722.576 385.77L718.218 381.386C717.92 383.874 718.408 386.391 719.614 388.587C720.819 390.783 722.681 392.546 724.939 393.63C727.197 394.714 729.738 395.064 732.205 394.631C734.672 394.199 736.942 393.005 738.696 391.217C740.451 389.429 741.602 387.137 741.987 384.662C742.373 382.187 741.975 379.653 740.849 377.416C739.722 375.179 737.924 373.351 735.705 372.187C733.487 371.024 730.961 370.584 728.48 370.928Z" fill="#9F9A9A"/>
<path d="M747.736 415.359C747.312 415.359 746.889 415.335 746.468 415.289C743.999 415.002 741.7 413.89 739.942 412.133C738.185 410.376 737.074 408.076 736.788 405.607C736.612 404.067 736.764 402.507 737.233 401.03C737.702 399.553 738.478 398.191 739.51 397.035C740.542 395.878 741.807 394.953 743.221 394.319C744.636 393.685 746.169 393.358 747.719 393.357C748.209 393.36 748.699 393.396 749.185 393.467L782.763 357.722L779.258 346.037L796.863 338.145L801.797 350.205C803.45 354.291 803.742 358.8 802.629 363.065C801.516 367.329 799.058 371.121 795.62 373.878L758.659 403.279C758.698 403.637 758.718 403.997 758.719 404.357C758.718 405.904 758.391 407.434 757.76 408.846C757.128 410.258 756.207 411.522 755.055 412.554C753.049 414.366 750.439 415.366 747.736 415.359Z" fill="#FFB8B8"/>
<path d="M773.986 296.469C775.15 295.952 776.407 295.675 777.681 295.656C778.955 295.636 780.22 295.874 781.399 296.356C782.579 296.838 783.649 297.553 784.545 298.458C785.441 299.364 786.145 300.441 786.614 301.625L807.5 363.469H776.986L773.986 296.469Z" fill="#7506A9"/>
<path d="M647.486 306.707V88.2623C647.477 81.5652 644.812 75.1452 640.077 70.4096C635.341 65.6741 628.921 63.0095 622.224 63H278.954C272.257 63.0095 265.837 65.6741 261.101 70.4096C256.366 75.1452 253.701 81.5652 253.692 88.2623V306.707C253.701 313.404 256.366 319.824 261.101 324.56C265.837 329.295 272.257 331.96 278.954 331.969H622.224C628.921 331.96 635.341 329.295 640.077 324.56C644.812 319.824 647.477 313.404 647.486 306.707ZM278.954 328.997C273.044 328.99 267.379 326.639 263.2 322.461C259.022 318.282 256.671 312.616 256.664 306.707V88.2623C256.671 82.3528 259.022 76.6873 263.2 72.5086C267.379 68.33 273.044 65.9792 278.954 65.972H622.224C628.133 65.9792 633.799 68.33 637.978 72.5086C642.156 76.6873 644.507 82.3528 644.514 88.2623V306.707C644.507 312.616 642.156 318.282 637.978 322.461C633.799 326.639 628.133 328.99 622.224 328.997H278.954Z" fill="#3F3D56"/>
<path d="M644.514 102.303H256.664C256.269 102.303 255.892 102.147 255.613 101.868C255.334 101.589 255.178 101.211 255.178 100.817C255.178 100.423 255.334 100.045 255.613 99.7665C255.892 99.4879 256.269 99.3313 256.664 99.3313H644.514C644.908 99.3313 645.286 99.4879 645.565 99.7665C645.844 100.045 646 100.423 646 100.817C646 101.211 645.844 101.589 645.565 101.868C645.286 102.147 644.908 102.303 644.514 102.303Z" fill="#3F3D56"/>
<path d="M281.926 91.2343C286.029 91.2343 289.356 87.9078 289.356 83.8042C289.356 79.7007 286.029 76.3741 281.926 76.3741C277.822 76.3741 274.496 79.7007 274.496 83.8042C274.496 87.9078 277.822 91.2343 281.926 91.2343Z" fill="#8108BA"/>
<path d="M307.188 91.2343C311.292 91.2343 314.618 87.9078 314.618 83.8042C314.618 79.7007 311.292 76.3741 307.188 76.3741C303.085 76.3741 299.758 79.7007 299.758 83.8042C299.758 87.9078 303.085 91.2343 307.188 91.2343Z" fill="#8108BA"/>
<path d="M332.451 91.2343C336.554 91.2343 339.881 87.9078 339.881 83.8042C339.881 79.7007 336.554 76.3741 332.451 76.3741C328.347 76.3741 325.02 79.7007 325.02 83.8042C325.02 87.9078 328.347 91.2343 332.451 91.2343Z" fill="#8108BA"/>
<path d="M387.979 262.232C387.847 262.232 387.717 262.206 387.596 262.156C387.475 262.105 387.364 262.032 387.271 261.939C387.179 261.846 387.105 261.736 387.055 261.614C387.004 261.493 386.979 261.363 386.979 261.232C386.979 250.805 382.408 244.989 375.033 238.985C374.931 238.902 374.846 238.8 374.784 238.684C374.721 238.568 374.682 238.442 374.668 238.311C374.654 238.18 374.667 238.048 374.704 237.922C374.742 237.795 374.804 237.678 374.887 237.576C374.97 237.474 375.073 237.389 375.188 237.327C375.304 237.265 375.431 237.226 375.562 237.213C375.693 237.199 375.825 237.212 375.951 237.25C376.077 237.288 376.194 237.35 376.296 237.434C384.126 243.809 388.979 250.014 388.979 261.232C388.979 261.363 388.953 261.493 388.903 261.614C388.852 261.736 388.779 261.846 388.686 261.939C388.593 262.032 388.483 262.105 388.361 262.156C388.24 262.206 388.11 262.232 387.979 262.232Z" fill="#8924B8"/>
<path d="M302.317 262.232C302.185 262.232 302.055 262.206 301.934 262.156C301.812 262.105 301.702 262.032 301.609 261.939C301.517 261.846 301.443 261.736 301.393 261.614C301.342 261.493 301.317 261.363 301.317 261.232C301.317 250.014 306.169 243.809 313.999 237.434C314.101 237.35 314.218 237.288 314.344 237.25C314.47 237.212 314.602 237.199 314.733 237.213C314.864 237.226 314.991 237.265 315.107 237.327C315.223 237.389 315.325 237.474 315.408 237.576C315.491 237.678 315.553 237.795 315.591 237.922C315.628 238.048 315.641 238.18 315.627 238.311C315.614 238.442 315.574 238.568 315.512 238.684C315.449 238.8 315.364 238.902 315.262 238.985C307.887 244.989 303.317 250.806 303.317 261.232C303.317 261.363 303.291 261.493 303.241 261.614C303.19 261.736 303.117 261.846 303.024 261.939C302.931 262.032 302.821 262.105 302.699 262.156C302.578 262.206 302.448 262.232 302.317 262.232Z" fill="#8924B8"/>
<path d="M379.413 193.701C379.207 193.701 379.005 193.638 378.837 193.519C378.668 193.4 378.54 193.231 378.471 193.037C378.402 192.842 378.394 192.631 378.45 192.432C378.505 192.233 378.621 192.056 378.781 191.926C386.362 185.755 386.979 176.988 386.979 167.003C386.979 166.737 387.084 166.483 387.272 166.296C387.459 166.108 387.713 166.003 387.979 166.003C388.244 166.003 388.498 166.108 388.686 166.296C388.873 166.483 388.979 166.737 388.979 167.003C388.979 177.508 388.306 186.75 380.044 193.477C379.866 193.622 379.643 193.702 379.413 193.701V193.701Z" fill="#8924B8"/>
<path d="M310.882 193.166C310.653 193.167 310.43 193.087 310.252 192.942C301.989 186.215 301.317 177.215 301.317 167.003C301.317 166.737 301.422 166.483 301.609 166.296C301.797 166.108 302.051 166.003 302.317 166.003C302.582 166.003 302.836 166.108 303.024 166.296C303.211 166.483 303.317 166.737 303.317 167.003C303.317 177.039 303.92 185.208 311.514 191.391C311.674 191.521 311.79 191.698 311.846 191.897C311.902 192.096 311.894 192.307 311.825 192.501C311.756 192.696 311.628 192.864 311.459 192.983C311.29 193.102 311.089 193.166 310.882 193.166V193.166Z" fill="#8924B8"/>
<path d="M400.828 215.152H379.413C379.148 215.152 378.893 215.047 378.706 214.859C378.518 214.672 378.413 214.417 378.413 214.152C378.413 213.887 378.518 213.632 378.706 213.445C378.893 213.257 379.148 213.152 379.413 213.152H400.828C401.093 213.152 401.348 213.257 401.535 213.445C401.723 213.632 401.828 213.887 401.828 214.152C401.828 214.417 401.723 214.672 401.535 214.859C401.348 215.047 401.093 215.152 400.828 215.152Z" fill="#8924B8"/>
<path d="M310.883 215.152H289.467C289.202 215.152 288.948 215.047 288.76 214.859C288.573 214.672 288.467 214.417 288.467 214.152C288.467 213.887 288.573 213.632 288.76 213.445C288.948 213.257 289.202 213.152 289.467 213.152H310.883C311.148 213.152 311.403 213.257 311.59 213.445C311.778 213.632 311.883 213.887 311.883 214.152C311.883 214.417 311.778 214.672 311.59 214.859C311.403 215.047 311.148 215.152 310.883 215.152Z" fill="#8924B8"/>
<path d="M345.148 257.948C345.016 257.948 344.886 257.923 344.765 257.872C344.644 257.822 344.533 257.749 344.44 257.656C344.348 257.563 344.274 257.453 344.224 257.331C344.173 257.21 344.148 257.08 344.148 256.948V188.419C344.148 188.153 344.253 187.899 344.441 187.712C344.628 187.524 344.882 187.419 345.148 187.419C345.413 187.419 345.667 187.524 345.855 187.712C346.042 187.899 346.148 188.153 346.148 188.419V256.948C346.148 257.08 346.122 257.21 346.072 257.331C346.021 257.453 345.948 257.563 345.855 257.656C345.762 257.749 345.652 257.822 345.53 257.872C345.409 257.923 345.279 257.948 345.148 257.948V257.948Z" fill="#8924B8"/>
<path d="M345.148 257.948C335.798 257.938 326.835 254.219 320.223 247.608C313.612 240.996 309.894 232.033 309.883 222.683V196.966C309.883 180.498 323.396 170.267 345.148 170.267C367.889 170.267 380.413 179.749 380.413 196.966V222.683C380.402 232.033 376.683 240.997 370.072 247.608C363.461 254.219 354.497 257.938 345.148 257.948V257.948ZM345.148 172.267C329.067 172.267 311.883 178.756 311.883 196.966V222.683C311.881 227.053 312.739 231.381 314.41 235.419C316.081 239.457 318.53 243.126 321.62 246.217C324.709 249.308 328.377 251.76 332.414 253.433C336.451 255.105 340.778 255.966 345.148 255.966C349.518 255.966 353.845 255.105 357.882 253.433C361.919 251.76 365.587 249.308 368.676 246.217C371.765 243.126 374.215 239.457 375.886 235.419C377.557 231.381 378.415 227.053 378.413 222.683V196.966C378.413 175.476 357.571 172.267 345.148 172.267V172.267Z" fill="#8924B8"/>
<path d="M324.651 176.441C324.451 176.441 324.255 176.381 324.09 176.269C323.924 176.157 323.796 175.997 323.722 175.811C323.144 174.366 322.81 172.834 322.734 171.28C322.751 165.351 325.11 159.669 329.297 155.472C333.484 151.275 339.16 148.902 345.089 148.87H345.204C351.125 148.899 356.795 151.263 360.982 155.45C365.169 159.636 367.534 165.306 367.563 171.227C367.511 172.674 367.203 174.1 366.653 175.438C366.551 175.682 366.357 175.875 366.113 175.976C365.869 176.076 365.595 176.077 365.35 175.976C365.106 175.876 364.912 175.683 364.809 175.44C364.707 175.196 364.705 174.922 364.803 174.677C365.26 173.569 365.518 172.388 365.564 171.19C365.529 165.804 363.371 160.65 359.558 156.846C355.746 153.041 350.587 150.894 345.201 150.87H345.091C339.7 150.897 334.536 153.051 330.724 156.864C326.912 160.677 324.758 165.84 324.732 171.232C324.803 172.549 325.089 173.846 325.579 175.07C325.64 175.222 325.662 175.386 325.644 175.548C325.627 175.711 325.569 175.866 325.478 176.001C325.386 176.136 325.263 176.247 325.119 176.324C324.975 176.401 324.814 176.441 324.651 176.441H324.651Z" fill="#8824B8"/>
<path d="M446.71 171.003H434.71C432.854 171.003 431.073 170.265 429.761 168.952C428.448 167.64 427.71 165.859 427.71 164.003C427.71 162.146 428.448 160.366 429.761 159.053C431.073 157.74 432.854 157.003 434.71 157.003H446.71C448.567 157.003 450.347 157.74 451.66 159.053C452.973 160.366 453.71 162.146 453.71 164.003C453.71 165.859 452.973 167.64 451.66 168.952C450.347 170.265 448.567 171.003 446.71 171.003V171.003Z" fill="#CCCCCC"/>
<path d="M528.71 200.503H516.71C514.854 200.503 513.073 199.765 511.761 198.452C510.448 197.14 509.71 195.359 509.71 193.503C509.71 191.646 510.448 189.866 511.761 188.553C513.073 187.24 514.854 186.503 516.71 186.503H528.71C530.567 186.503 532.347 187.24 533.66 188.553C534.973 189.866 535.71 191.646 535.71 193.503C535.71 195.359 534.973 197.14 533.66 198.452C532.347 199.765 530.567 200.503 528.71 200.503V200.503Z" fill="#CCCCCC"/>
<path d="M566.71 200.503H554.71C552.854 200.503 551.073 199.765 549.761 198.452C548.448 197.14 547.71 195.359 547.71 193.503C547.71 191.646 548.448 189.866 549.761 188.553C551.073 187.24 552.854 186.503 554.71 186.503H566.71C568.567 186.503 570.347 187.24 571.66 188.553C572.973 189.866 573.71 191.646 573.71 193.503C573.71 195.359 572.973 197.14 571.66 198.452C570.347 199.765 568.567 200.503 566.71 200.503V200.503Z" fill="#CCCCCC"/>
<path d="M604.71 200.503H592.71C590.854 200.503 589.073 199.765 587.761 198.452C586.448 197.14 585.71 195.359 585.71 193.503C585.71 191.646 586.448 189.866 587.761 188.553C589.073 187.24 590.854 186.503 592.71 186.503H604.71C606.567 186.503 608.347 187.24 609.66 188.553C610.973 189.866 611.71 191.646 611.71 193.503C611.71 195.359 610.973 197.14 609.66 198.452C608.347 199.765 606.567 200.503 604.71 200.503V200.503Z" fill="#CCCCCC"/>
<path d="M529.71 171.503H473.71C471.854 171.503 470.073 170.765 468.761 169.452C467.448 168.14 466.71 166.359 466.71 164.503C466.71 162.646 467.448 160.866 468.761 159.553C470.073 158.24 471.854 157.503 473.71 157.503H529.71C531.567 157.503 533.347 158.24 534.66 159.553C535.973 160.866 536.71 162.646 536.71 164.503C536.71 166.359 535.973 168.14 534.66 169.452C533.347 170.765 531.567 171.503 529.71 171.503Z" fill="#CCCCCC"/>
<path d="M490.71 199.503H434.71C432.854 199.503 431.073 198.765 429.761 197.452C428.448 196.14 427.71 194.359 427.71 192.503C427.71 190.646 428.448 188.866 429.761 187.553C431.073 186.24 432.854 185.503 434.71 185.503H490.71C492.567 185.503 494.347 186.24 495.66 187.553C496.973 188.866 497.71 190.646 497.71 192.503C497.71 194.359 496.973 196.14 495.66 197.452C494.347 198.765 492.567 199.503 490.71 199.503Z" fill="#CCCCCC"/>
<path d="M600.71 171.503H557.71C555.854 171.503 554.073 170.765 552.761 169.452C551.448 168.14 550.71 166.359 550.71 164.503C550.71 162.646 551.448 160.866 552.761 159.553C554.073 158.24 555.854 157.503 557.71 157.503H600.71C602.567 157.503 604.347 158.24 605.66 159.553C606.973 160.866 607.71 162.646 607.71 164.503C607.71 166.359 606.973 168.14 605.66 169.452C604.347 170.765 602.567 171.503 600.71 171.503Z" fill="#CCCCCC"/>
<path d="M446.71 230.003H434.71C432.854 230.003 431.073 229.265 429.761 227.952C428.448 226.64 427.71 224.859 427.71 223.003C427.71 221.146 428.448 219.366 429.761 218.053C431.073 216.74 432.854 216.003 434.71 216.003H446.71C448.567 216.003 450.347 216.74 451.66 218.053C452.973 219.366 453.71 221.146 453.71 223.003C453.71 224.859 452.973 226.64 451.66 227.952C450.347 229.265 448.567 230.003 446.71 230.003V230.003Z" fill="#CCCCCC"/>
<path d="M529.71 230.503H473.71C471.854 230.503 470.073 229.765 468.761 228.452C467.448 227.14 466.71 225.359 466.71 223.503C466.71 221.646 467.448 219.866 468.761 218.553C470.073 217.24 471.854 216.503 473.71 216.503H529.71C531.567 216.503 533.347 217.24 534.66 218.553C535.973 219.866 536.71 221.646 536.71 223.503C536.71 225.359 535.973 227.14 534.66 228.452C533.347 229.765 531.567 230.503 529.71 230.503V230.503Z" fill="#CCCCCC"/>
<path d="M600.71 230.503H557.71C555.854 230.503 554.073 229.765 552.761 228.452C551.448 227.14 550.71 225.359 550.71 223.503C550.71 221.646 551.448 219.866 552.761 218.553C554.073 217.24 555.854 216.503 557.71 216.503H600.71C602.567 216.503 604.347 217.24 605.66 218.553C606.973 219.866 607.71 221.646 607.71 223.503C607.71 225.359 606.973 227.14 605.66 228.452C604.347 229.765 602.567 230.503 600.71 230.503V230.503Z" fill="#CCCCCC"/>
<path d="M581.71 254.003C581.713 252.147 582.451 250.368 583.763 249.055C585.075 247.743 586.855 247.005 588.71 247.003H600.71C602.567 247.003 604.347 247.74 605.66 249.053C606.973 250.366 607.71 252.146 607.71 254.003C607.71 255.859 606.973 257.64 605.66 258.952C604.347 260.265 602.567 261.003 600.71 261.003H588.71C586.855 261.001 585.075 260.262 583.763 258.95C582.451 257.638 581.713 255.859 581.71 254.003V254.003Z" fill="#CCCCCC"/>
<path d="M498.71 254.503C498.713 252.647 499.451 250.868 500.763 249.555C502.075 248.243 503.855 247.505 505.71 247.503H561.71C563.567 247.503 565.347 248.24 566.66 249.553C567.973 250.866 568.71 252.646 568.71 254.503C568.71 256.359 567.973 258.14 566.66 259.452C565.347 260.765 563.567 261.503 561.71 261.503H505.71C503.855 261.501 502.075 260.762 500.763 259.45C499.451 258.138 498.713 256.359 498.71 254.503Z" fill="#CCCCCC"/>
<path d="M427.71 254.503C427.713 252.647 428.451 250.868 429.763 249.555C431.075 248.243 432.855 247.505 434.71 247.503H477.71C479.567 247.503 481.347 248.24 482.66 249.553C483.973 250.866 484.71 252.646 484.71 254.503C484.71 256.359 483.973 258.14 482.66 259.452C481.347 260.765 479.567 261.503 477.71 261.503H434.71C432.855 261.501 431.075 260.762 429.763 259.45C428.451 258.138 427.713 256.359 427.71 254.503Z" fill="#CCCCCC"/>
</g>
</g>
<defs>
<clipPath id="clip0">
<rect width="971.44" height="502" fill="white"/>
</clipPath>
<clipPath id="clip1">
<rect width="690" height="448.759" fill="white" transform="translate(199 63)"/>
</clipPath>
</defs>
</svg>
